<svg width="24" height="24" viewBox="0 0 24 24" fill="none" xmlns="http://www.w3.org/2000/svg">
<path d="M23 11.5C23 17.8513 17.8513 23 11.5 23C5.14873 23 0 17.8513 0 11.5C0 5.14873 5.14873 0 11.5 0C17.8513 0 23 5.14873 23 11.5Z" fill="#D70039"/>
<g clip-path="url(#clip0_115_38)">
<path d="M12.7557 15.581H15.581M15.581 15.581H18.4062M15.581 15.581V12.7557M15.581 15.581V18.4062M6.47727 10.2443H8.3608C8.86034 10.2443 9.33942 10.0459 9.69265 9.69265C10.0459 9.33942 10.2443 8.86034 10.2443 8.3608V6.47727C10.2443 5.97773 10.0459 5.49865 9.69265 5.14542C9.33942 4.79219 8.86034 4.59375 8.3608 4.59375H6.47727C5.97773 4.59375 5.49865 4.79219 5.14542 5.14542C4.79219 5.49865 4.59375 5.97773 4.59375 6.47727V8.3608C4.59375 8.86034 4.79219 9.33942 5.14542 9.69265C5.49865 10.0459 5.97773 10.2443 6.47727 10.2443ZM6.47727 18.4062H8.3608C8.86034 18.4062 9.33942 18.2078 9.69265 17.8546C10.0459 17.5013 10.2443 17.0223 10.2443 16.5227V14.6392C10.2443 14.1397 10.0459 13.6606 9.69265 13.3074C9.33942 12.9541 8.86034 12.7557 8.3608 12.7557H6.47727C5.97773 12.7557 5.49865 12.9541 5.14542 13.3074C4.79219 13.6606 4.59375 14.1397 4.59375 14.6392V16.5227C4.59375 17.0223 4.79219 17.5013 5.14542 17.8546C5.49865 18.2078 5.97773 18.4062 6.47727 18.4062ZM14.6392 10.2443H16.5227C17.0223 10.2443 17.5013 10.0459 17.8546 9.69265C18.2078 9.33942 18.4062 8.86034 18.4062 8.3608V6.47727C18.4062 5.97773 18.2078 5.49865 17.8546 5.14542C17.5013 4.79219 17.0223 4.59375 16.5227 4.59375H14.6392C14.1397 4.59375 13.6606 4.79219 13.3074 5.14542C12.9541 5.49865 12.7557 5.97773 12.7557 6.47727V8.3608C12.7557 8.86034 12.9541 9.33942 13.3074 9.69265C13.6606 10.0459 14.1397 10.2443 14.6392 10.2443Z" stroke="white" stroke-width="1.5" stroke-linecap="round" stroke-linejoin="round"/>
</g>
<defs>
<clipPath id="clip0_115_38">
<rect width="17" height="17" fill="white" transform="translate(3 3)"/>
</clipPath>
</defs>
</svg>
