<svg width="40" height="40" viewBox="0 0 40 40" fill="none" xmlns="http://www.w3.org/2000/svg">
<path d="M40 20C40 31.0457 31.0457 40 20 40C8.9543 40 0 31.0457 0 20C0 8.9543 8.9543 0 20 0C31.0457 0 40 8.9543 40 20Z" fill="#D70039"/>
<path d="M22.2159 27.2017H27.2017M27.2017 27.2017H32.1875M27.2017 27.2017V22.2159M27.2017 27.2017V32.1875M11.1364 17.7841H14.4602C15.3418 17.7841 16.1872 17.4339 16.8106 16.8106C17.4339 16.1872 17.7841 15.3418 17.7841 14.4602V11.1364C17.7841 10.2548 17.4339 9.40938 16.8106 8.78604C16.1872 8.16269 15.3418 7.8125 14.4602 7.8125H11.1364C10.2548 7.8125 9.40938 8.16269 8.78604 8.78604C8.16269 9.40938 7.8125 10.2548 7.8125 11.1364V14.4602C7.8125 15.3418 8.16269 16.1872 8.78604 16.8106C9.40938 17.4339 10.2548 17.7841 11.1364 17.7841ZM11.1364 32.1875H14.4602C15.3418 32.1875 16.1872 31.8373 16.8106 31.214C17.4339 30.5906 17.7841 29.7452 17.7841 28.8636V25.5398C17.7841 24.6582 17.4339 23.8128 16.8106 23.1894C16.1872 22.5661 15.3418 22.2159 14.4602 22.2159H11.1364C10.2548 22.2159 9.40938 22.5661 8.78604 23.1894C8.16269 23.8128 7.8125 24.6582 7.8125 25.5398V28.8636C7.8125 29.7452 8.16269 30.5906 8.78604 31.214C9.40938 31.8373 10.2548 32.1875 11.1364 32.1875ZM25.5398 17.7841H28.8636C29.7452 17.7841 30.5906 17.4339 31.214 16.8106C31.8373 16.1872 32.1875 15.3418 32.1875 14.4602V11.1364C32.1875 10.2548 31.8373 9.40938 31.214 8.78604C30.5906 8.16269 29.7452 7.8125 28.8636 7.8125H25.5398C24.6582 7.8125 23.8128 8.16269 23.1894 8.78604C22.5661 9.40938 22.2159 10.2548 22.2159 11.1364V14.4602C22.2159 15.3418 22.5661 16.1872 23.1894 16.8106C23.8128 17.4339 24.6582 17.7841 25.5398 17.7841Z" stroke="white" stroke-width="3" stroke-linecap="round" stroke-linejoin="round"/>
</svg>
